<svg width="28" height="36" viewBox="0 0 28 36" fill="none" xmlns="http://www.w3.org/2000/svg">
<path d="M24 12.3333H22.3333V9C22.3333 4.40001 18.6 0.666672 14 0.666672C9.4 0.666672 5.66667 4.40001 5.66667 9V12.3333H4C2.16667 12.3333 0.666672 13.8333 0.666672 15.6667V32.3333C0.666672 34.1667 2.16667 35.6667 4 35.6667H24C25.8333 35.6667 27.3333 34.1667 27.3333 32.3333V15.6667C27.3333 13.8333 25.8333 12.3333 24 12.3333ZM14 27.3333C12.1667 27.3333 10.6667 25.8333 10.6667 24C10.6667 22.1667 12.1667 20.6667 14 20.6667C15.8333 20.6667 17.3333 22.1667 17.3333 24C17.3333 25.8333 15.8333 27.3333 14 27.3333ZM19.1667 12.3333H8.83334V9C8.83334 6.15 11.15 3.83334 14 3.83334C16.85 3.83334 19.1667 6.15 19.1667 9V12.3333Z" fill="#9B9393"/>
</svg>
