<svg width="30" height="34" viewBox="0 0 30 34" fill="none" xmlns="http://www.w3.org/2000/svg">
<path d="M26.6667 4.00001H19.7C19 2.06667 17.1667 0.666672 15 0.666672C12.8333 0.666672 11 2.06667 10.3 4.00001H3.33333C1.5 4.00001 0 5.5 0 7.33334V30.6667C0 32.5 1.5 34 3.33333 34H26.6667C28.5 34 30 32.5 30 30.6667V7.33334C30 5.5 28.5 4.00001 26.6667 4.00001ZM15 4.00001C15.9167 4.00001 16.6667 4.75 16.6667 5.66667C16.6667 6.58334 15.9167 7.33334 15 7.33334C14.0833 7.33334 13.3333 6.58334 13.3333 5.66667C13.3333 4.75 14.0833 4.00001 15 4.00001ZM15 10.6667C17.7667 10.6667 20 12.9 20 15.6667C20 18.4333 17.7667 20.6667 15 20.6667C12.2333 20.6667 10 18.4333 10 15.6667C10 12.9 12.2333 10.6667 15 10.6667ZM25 30.6667H5V28.3333C5 25 11.6667 23.1667 15 23.1667C18.3333 23.1667 25 25 25 28.3333V30.6667Z" fill="#9B9393"/>
</svg>
