<svg width="30" height="30" viewBox="0 0 30 30" fill="none" xmlns="http://www.w3.org/2000/svg">
<path d="M28.3333 20.8333C26.25 20.8333 24.25 20.5 22.3833 19.8833C21.8 19.7 21.15 19.8333 20.6833 20.2833L17.0167 23.95C12.3 21.55 8.43333 17.7 6.03333 12.9833L9.7 9.3C10.1667 8.85 10.3 8.2 10.1167 7.61667C9.5 5.75 9.16667 3.75 9.16667 1.66667C9.16667 0.75 8.41667 0 7.5 0H1.66667C0.75 0 0 0.75 0 1.66667C0 17.3167 12.6833 30 28.3333 30C29.25 30 30 29.25 30 28.3333V22.5C30 21.5833 29.25 20.8333 28.3333 20.8333ZM15 0V16.6667L20 11.6667H30V0H15Z" fill="#9B9393"/>
</svg>
