<svg width="1216" height="920" viewBox="0 0 1216 920" fill="none" xmlns="http://www.w3.org/2000/svg">
<path d="M498 0H6L0 302L6 358L26 404L60 442L94 462L130 500L168 520L204 538H250L298 548L336 558L388 570L442 602L498 638L540 668L588 706L638 742L678 778L714 808L810 870L848 892L888 902L934 912L972 920H1026L1064 902L1098 882L1134 846L1170 808L1192 766L1216 726V680V638L1204 602L1170 548L1146 500L1098 478L1016 442L942 422L888 404L830 380L786 336L762 294L746 238L728 188L702 140L678 92L638 54L588 30L540 18L498 0Z" fill="#E8C590" fill-opacity="0.4"/>
</svg>
