<svg width="32" height="34" viewBox="0 0 32 34" fill="none" xmlns="http://www.w3.org/2000/svg">
<path d="M27.9321 4.00002H20.747C20.0251 2.06669 18.1343 0.666687 15.8997 0.666687C13.6651 0.666687 11.7743 2.06669 11.0523 4.00002H3.86727C1.97647 4.00002 0.429443 5.50002 0.429443 7.33335V30.6667C0.429443 32.5 1.97647 34 3.86727 34H27.9321C29.8229 34 31.3699 32.5 31.3699 30.6667V7.33335C31.3699 5.50002 29.8229 4.00002 27.9321 4.00002ZM15.8997 4.00002C16.8451 4.00002 17.6186 4.75002 17.6186 5.66669C17.6186 6.58335 16.8451 7.33335 15.8997 7.33335C14.9543 7.33335 14.1807 6.58335 14.1807 5.66669C14.1807 4.75002 14.9543 4.00002 15.8997 4.00002ZM15.8997 29L7.3051 20.6667H12.4618V14H19.3375V20.6667H24.4942L15.8997 29Z" fill="black"/>
</svg>
