<svg width="40" height="42" viewBox="0 0 40 42" fill="none" xmlns="http://www.w3.org/2000/svg">
<path d="M26.5 19.8333V6.83325L20 0.333252L13.5 6.83325V11.1666H0.5V41.4999H39.5V19.8333H26.5ZM9.16667 37.1666H4.83333V32.8333H9.16667V37.1666ZM9.16667 28.4999H4.83333V24.1666H9.16667V28.4999ZM9.16667 19.8333H4.83333V15.4999H9.16667V19.8333ZM22.1667 37.1666H17.8333V32.8333H22.1667V37.1666ZM22.1667 28.4999H17.8333V24.1666H22.1667V28.4999ZM22.1667 19.8333H17.8333V15.4999H22.1667V19.8333ZM22.1667 11.1666H17.8333V6.83325H22.1667V11.1666ZM35.1667 37.1666H30.8333V32.8333H35.1667V37.1666ZM35.1667 28.4999H30.8333V24.1666H35.1667V28.4999Z" fill="black"/>
</svg>
