<svg width="40" height="28" viewBox="0 0 40 28" fill="none" xmlns="http://www.w3.org/2000/svg">
<path d="M36.6667 0.5H3.33333C1.5 0.5 0 1.85 0 3.5V24.5C0 26.15 1.5 27.5 3.33333 27.5H36.6667C38.5 27.5 39.9833 26.15 39.9833 24.5L40 3.5C40 1.85 38.5 0.5 36.6667 0.5ZM13.3333 5C16.1 5 18.3333 7.01 18.3333 9.5C18.3333 11.99 16.1 14 13.3333 14C10.5667 14 8.33333 11.99 8.33333 9.5C8.33333 7.01 10.5667 5 13.3333 5ZM23.3333 23H3.33333V21.5C3.33333 18.5 10 16.85 13.3333 16.85C16.6667 16.85 23.3333 18.5 23.3333 21.5V23ZM29.75 17H32.4833L35 20L31.6833 22.985C29.5 21.515 27.8833 19.415 27.1333 17C26.8333 16.04 26.6667 15.035 26.6667 14C26.6667 12.965 26.8333 11.96 27.1333 11C27.8833 8.57 29.5 6.485 31.6833 5.015L35 8L32.4833 11H29.75C29.3833 11.945 29.1667 12.95 29.1667 14C29.1667 15.05 29.3833 16.055 29.75 17Z" fill="black"/>
</svg>
