<svg width="64" height="57" viewBox="0 0 64 57" fill="none" xmlns="http://www.w3.org/2000/svg">
<path d="M64 28.5C64 12.7599 49.6731 4.19617e-05 32 4.19617e-05C14.3269 4.19617e-05 0 12.7599 0 28.5C0 42.7252 11.7019 54.5157 27 56.6538V36.7383H18.875V28.5H27V22.2211C27 15.0783 31.7774 11.1329 39.0869 11.1329C42.5879 11.1329 46.25 11.6895 46.25 11.6895V18.7032H42.2149C38.2397 18.7032 37 20.9001 37 23.1539V28.5H45.875L44.4562 36.7383H37V56.6538C52.2981 54.5157 64 42.7252 64 28.5Z" fill="#1877F2"/>
</svg>
