<svg width="59" height="56" viewBox="0 0 59 56" fill="none" xmlns="http://www.w3.org/2000/svg">
<path d="M29.5028 0C21.491 0 20.4855 0.0332505 17.3388 0.169167C14.1983 0.305667 12.0546 0.777584 10.1788 1.47C8.23858 2.18517 6.5927 3.14183 4.95298 4.69875C3.31202 6.25508 2.3041 7.81725 1.54815 9.65825C0.816789 11.4392 0.318972 13.4744 0.177616 16.4541C0.0368751 19.4408 0 20.3957 0 28C0 35.6043 0.0356468 36.5558 0.178232 39.5424C0.32266 42.5233 0.819863 44.5579 1.54877 46.3382C2.30287 48.1798 3.31079 49.742 4.95113 51.2983C6.59025 52.8558 8.23612 53.8148 10.1751 54.53C12.0521 55.2224 14.1964 55.6943 17.3363 55.8308C20.483 55.9667 21.4879 56 29.4991 56C37.5115 56 38.5139 55.9667 41.6606 55.8308C44.8011 55.6943 46.9473 55.2224 48.8242 54.53C50.7639 53.8148 52.4073 52.8558 54.0464 51.2983C55.6874 49.742 56.6953 48.1798 57.4512 46.3388C58.1764 44.5579 58.6743 42.5227 58.8218 39.543C58.9631 36.5563 59 35.6043 59 28C59 20.3957 58.9631 19.4413 58.8218 16.4547C58.6743 13.4738 58.1764 11.4392 57.4512 9.65883C56.6953 7.81725 55.6874 6.25508 54.0464 4.69875C52.4055 3.14125 50.7645 2.18458 48.8224 1.47C46.9418 0.777584 44.7968 0.305667 41.6563 0.169167C38.5096 0.0332505 37.5078 0 29.4935 0H29.5028ZM26.8563 5.04583C27.6418 5.04467 28.5182 5.04583 29.5028 5.04583C37.3793 5.04583 38.3129 5.07267 41.4234 5.20683C44.2996 5.33167 45.8607 5.78783 46.9006 6.17108C48.2773 6.67858 49.2588 7.28525 50.2907 8.26525C51.3232 9.24525 51.9623 10.1786 52.4983 11.4852C52.902 12.4711 53.3833 13.9527 53.5142 16.6827C53.6555 19.6344 53.6863 20.5211 53.6863 27.9936C53.6863 35.4661 53.6555 36.3527 53.5142 39.3044C53.3826 42.0344 52.902 43.5161 52.4983 44.5019C51.9636 45.8086 51.3232 46.739 50.2907 47.7184C49.2581 48.6984 48.2779 49.3051 46.9006 49.8126C45.8619 50.1976 44.2996 50.6526 41.4234 50.7774C38.3135 50.9116 37.3793 50.9408 29.5028 50.9408C21.6256 50.9408 20.692 50.9116 17.5822 50.7774C14.7059 50.6514 13.1448 50.1952 12.1043 49.812C10.7277 49.3045 9.74432 48.6978 8.71181 47.7178C7.6793 46.7378 7.04013 45.8068 6.5042 44.4996C6.10042 43.5138 5.61919 42.0321 5.48829 39.3021C5.34693 36.3504 5.31866 35.4637 5.31866 27.9866C5.31866 20.5094 5.34693 19.6274 5.48829 16.6758C5.61981 13.9458 6.10042 12.4641 6.5042 11.4771C7.0389 10.1704 7.6793 9.23708 8.71181 8.25708C9.74432 7.27708 10.7277 6.67042 12.1043 6.16175C13.1442 5.77675 14.7059 5.32175 17.5822 5.19633C20.3036 5.07967 21.3582 5.04467 26.8563 5.03883V5.04583ZM45.2498 9.695C43.2954 9.695 41.7097 11.1982 41.7097 13.0538C41.7097 14.9088 43.2954 16.4138 45.2498 16.4138C47.2042 16.4138 48.7898 14.9088 48.7898 13.0538C48.7898 11.1988 47.2042 9.69383 45.2498 9.69383V9.695ZM29.5028 13.6208C21.1364 13.6208 14.3531 20.0591 14.3531 28C14.3531 35.9409 21.1364 42.3762 29.5028 42.3762C37.8692 42.3762 44.6499 35.9409 44.6499 28C44.6499 20.0591 37.8686 13.6208 29.5022 13.6208H29.5028ZM29.5028 18.6667C34.9333 18.6667 39.3362 22.8451 39.3362 28C39.3362 33.1543 34.9333 37.3333 29.5028 37.3333C24.0716 37.3333 19.6693 33.1543 19.6693 28C19.6693 22.8451 24.0716 18.6667 29.5028 18.6667Z" fill="white"/>
</svg>
