<svg width="69" height="54" viewBox="0 0 69 54" fill="none" xmlns="http://www.w3.org/2000/svg">
<path d="M58.7913 46.0116H48.5676V33.4811C48.5676 30.4931 48.4995 26.6466 43.2503 26.6466C37.9255 26.6466 37.1108 29.9022 37.1108 33.2636V46.0108H26.8871V20.243H36.7018V23.7645H36.8392C37.8214 22.4501 39.2408 21.3688 40.946 20.6359C42.6513 19.9029 44.5787 19.5456 46.5229 19.6021C56.885 19.6021 58.7956 24.9363 58.7956 31.8759L58.7913 46.0116ZM15.3514 16.7207C14.178 16.7209 13.0308 16.4487 12.0551 15.9387C11.0793 15.4286 10.3187 14.7035 9.8695 13.8551C9.42026 13.0067 9.30252 12.0731 9.53124 11.1724C9.75996 10.2716 10.3248 9.44421 11.1544 8.79471C11.984 8.14522 13.0411 7.70284 14.1919 7.52351C15.3427 7.34419 16.5356 7.43597 17.6198 7.78726C18.704 8.13855 19.6307 8.73356 20.2828 9.49706C20.9349 10.2606 21.2831 11.1582 21.2833 12.0766C21.2834 12.6864 21.1301 13.2902 20.832 13.8536C20.534 14.417 20.0972 14.9289 19.5463 15.3602C18.9955 15.7914 18.3415 16.1335 17.6218 16.367C16.902 16.6004 16.1305 16.7206 15.3514 16.7207ZM20.4632 46.0116H10.229V20.243H20.4632V46.0116ZM63.8882 0.00367911H5.0916C3.75708 -0.00810739 2.47111 0.395243 1.51639 1.1251C0.561666 1.85495 0.016287 2.85159 0 3.89602V50.1032C0.0157296 51.1481 0.560789 52.1454 1.51548 52.8761C2.47017 53.6067 3.75642 54.0108 5.0916 53.9997H63.8882C65.226 54.0128 66.5159 53.6098 67.4743 52.8792C68.4328 52.1487 68.9815 51.1502 69 50.1032V3.89269C68.9809 2.84619 68.4318 1.84841 67.4733 1.11857C66.5148 0.388739 65.2254 -0.0134582 63.8882 0.000343849" fill="#0A66C2"/>
</svg>
