<svg width="50" height="45" viewBox="0 0 50 45" fill="none" xmlns="http://www.w3.org/2000/svg">
<path d="M43.75 12.5V10L37.5 15L31.25 10V12.5L37.5 17.5L43.75 12.5ZM45.8333 0H4.16667C1.875 0 0 2.25 0 5V40C0 42.75 1.875 45 4.16667 45H45.8333C48.125 45 49.9792 42.75 49.9792 40L50 5C50 2.25 48.125 0 45.8333 0ZM16.6667 7.5C20.125 7.5 22.9167 10.85 22.9167 15C22.9167 19.15 20.125 22.5 16.6667 22.5C13.2083 22.5 10.4167 19.15 10.4167 15C10.4167 10.85 13.2083 7.5 16.6667 7.5ZM29.1667 37.5H4.16667V35C4.16667 30 12.5 27.25 16.6667 27.25C20.8333 27.25 29.1667 30 29.1667 35V37.5ZM45.8333 22.5H29.1667V7.5H45.8333V22.5Z" fill="black"/>
</svg>
