<svg width="71" height="57" viewBox="0 0 71 57" fill="none" xmlns="http://www.w3.org/2000/svg">
<path d="M22.3287 57C49.1224 57 63.7749 35.0727 63.7749 16.0582C63.7749 15.4354 63.7621 14.8154 63.7338 14.1982C66.578 12.1671 69.0501 9.63238 71 6.74696C68.39 7.89298 65.5812 8.66446 62.6347 9.01234C65.6422 7.23089 67.9511 4.41285 69.0404 1.05344C66.2259 2.70163 63.1091 3.89955 59.7905 4.5463C57.1323 1.74937 53.3479 0 49.1576 0C41.1132 0 34.5899 6.44418 34.5899 14.3875C34.5899 15.5167 34.7177 16.615 34.9676 17.6686C22.8609 17.0668 12.1255 11.3409 4.94076 2.63429C3.68974 4.76079 2.96839 7.23096 2.96839 9.86667C2.96839 14.859 5.54008 19.2662 9.45074 21.8444C7.06084 21.7715 4.81579 21.1234 2.85355 20.0447C2.85141 20.1051 2.8514 20.164 2.8514 20.2285C2.8514 27.1973 7.87256 33.0156 14.5379 34.3341C13.3138 34.6637 12.026 34.8405 10.6968 34.8405C9.75961 34.8405 8.84653 34.7493 7.95904 34.581C9.81354 40.2984 15.1912 44.4589 21.5668 44.5752C16.5811 48.4354 10.3006 50.7346 3.47467 50.7346C2.30033 50.7346 1.1402 50.6686 0 50.5354C6.44685 54.6173 14.1019 56.9991 22.3294 56.9991" fill="#1DA1F2"/>
</svg>
