<svg width="34" height="44" viewBox="0 0 34 44" fill="none" xmlns="http://www.w3.org/2000/svg">
<path d="M29.1667 14.5833H27.0833V10.4167C27.0833 4.66667 22.4167 0 16.6667 0C10.9167 0 6.25 4.66667 6.25 10.4167V14.5833H4.16667C1.875 14.5833 0 16.4583 0 18.75V39.5833C0 41.875 1.875 43.75 4.16667 43.75H29.1667C31.4583 43.75 33.3333 41.875 33.3333 39.5833V18.75C33.3333 16.4583 31.4583 14.5833 29.1667 14.5833ZM16.6667 33.3333C14.375 33.3333 12.5 31.4583 12.5 29.1667C12.5 26.875 14.375 25 16.6667 25C18.9583 25 20.8333 26.875 20.8333 29.1667C20.8333 31.4583 18.9583 33.3333 16.6667 33.3333ZM23.125 14.5833H10.2083V10.4167C10.2083 6.85417 13.1042 3.95833 16.6667 3.95833C20.2292 3.95833 23.125 6.85417 23.125 10.4167V14.5833Z" fill="black"/>
</svg>
